<svg width="53" height="53" viewBox="0 0 53 53" fill="none" xmlns="http://www.w3.org/2000/svg">
<path fill-rule="evenodd" clip-rule="evenodd" d="M40.4075 12.5505C39.5708 12.6993 38.3844 13.0887 36.4849 13.7219L22.1506 18.4999C20.3235 19.109 19.0343 19.5394 18.107 19.9012C17.6484 20.0802 17.329 20.2231 17.1069 20.3403C16.9188 20.4395 16.8512 20.4942 16.8472 20.497C15.9509 21.3646 15.9509 22.8024 16.8472 23.67C16.8512 23.6728 16.9188 23.7275 17.1069 23.8267C17.329 23.9439 17.6484 24.0869 18.107 24.2658C19.0343 24.6276 20.3235 25.058 22.1506 25.6671C22.1926 25.6811 22.2342 25.6949 22.2754 25.7086C22.8791 25.9094 23.4092 26.0857 23.8971 26.3438C25.073 26.9656 26.0345 27.9271 26.6563 29.103C26.9144 29.5909 27.0907 30.121 27.2915 30.7247C27.3052 30.7659 27.319 30.8075 27.333 30.8495C27.9421 32.6766 28.3725 33.9658 28.7343 34.893C28.9132 35.3517 29.0562 35.671 29.1733 35.8931C29.2726 36.0812 29.3272 36.1489 29.33 36.1529C30.1977 37.0492 31.6354 37.0492 32.5031 36.1529C32.5059 36.1489 32.5606 36.0812 32.6598 35.8931C32.777 35.671 32.9199 35.3517 33.0989 34.893C33.4607 33.9658 33.8911 32.6766 34.5001 30.8495L39.2782 16.5152C39.9114 14.6157 40.3007 13.4293 40.4496 12.5925C40.4527 12.5751 40.4556 12.5582 40.4584 12.5417C40.4419 12.5445 40.425 12.5474 40.4075 12.5505ZM40.9794 12.4994C40.979 12.4998 40.9717 12.4993 40.959 12.4965C40.9735 12.4976 40.9799 12.499 40.9794 12.4994ZM40.5036 12.0411C40.5008 12.0284 40.5002 12.0211 40.5006 12.0206C40.501 12.0202 40.5024 12.0265 40.5036 12.0411ZM39.634 8.20209C40.8508 7.98563 42.517 7.92118 43.7979 9.20214C45.0789 10.4831 45.0144 12.1493 44.798 13.3661C44.5853 14.5617 44.0852 16.0614 43.521 17.7536L43.4682 17.9119L38.6902 32.2461L38.6695 32.3081C38.0858 34.0591 37.6206 35.4548 37.2134 36.4984C36.8307 37.4793 36.3769 38.496 35.6935 39.2072C33.0866 41.92 28.7465 41.92 26.1397 39.2072C25.4562 38.496 25.0024 37.4793 24.6197 36.4984C24.2125 35.4548 23.7473 34.0592 23.1637 32.3083L23.143 32.2461C22.8771 31.4485 22.8172 31.291 22.752 31.1678C22.5447 30.7758 22.2243 30.4553 21.8323 30.248C21.709 30.1829 21.5516 30.123 20.754 29.8571L20.6916 29.8363C18.9408 29.2527 17.5452 28.7875 16.5017 28.3804C15.5207 27.9976 14.5041 27.5438 13.7929 26.8604C11.0801 24.2535 11.0801 19.9135 13.7929 17.3066C14.5041 16.6232 15.5207 16.1694 16.5017 15.7867C17.5452 15.3795 18.9408 14.9143 20.6917 14.3307L20.754 14.3099L35.0882 9.53185C35.1411 9.51421 35.1938 9.49664 35.2463 9.47912C36.9386 8.91486 38.4383 8.41479 39.634 8.20209Z" fill="white"/>
</svg>
